<svg width="1282" height="805" xmlns="http://www.w3.org/2000/svg" xmlns:xlink="http://www.w3.org/1999/xlink" xml:space="preserve" overflow="hidden"><defs><clipPath id="clip0"><rect x="227" y="1553" width="1282" height="805"/></clipPath></defs><g clip-path="url(#clip0)" transform="translate(-227 -1553)"><path d="M1059.21 1553.39C1135.47 1556 1203.96 1571.78 1270.86 1606.32 1362.1 1653.42 1416.46 1717.87 1445.75 1759.4 1476.39 1800.04 1518.61 1872.19 1507.05 1962.6 1484.96 2135.27 1237.53 2293.95 1029.38 2341.14 653.133 2426.46 306.659 2171.84 239.891 1939.52 230.272 1906.05 212.536 1840.06 248.883 1775.99 276.819 1726.72 336.946 1678.31 584.632 1624.52 783.457 1581.34 932.118 1549.05 1059.21 1553.39Z" fill="#B8C0B0" fill-rule="evenodd"/><text fill="#543E34" font-family="Gill Sans Nova,Gill Sans Nova_MSFontService,sans-serif" font-weight="500" font-size="92" transform="matrix(1 0 0 1 564.833 1985)">COGNIZANCE</text></g></svg>