<svg width="1282" height="805" xmlns="http://www.w3.org/2000/svg" xmlns:xlink="http://www.w3.org/1999/xlink" xml:space="preserve" overflow="hidden"><defs><clipPath id="clip0"><rect x="1626" y="1573" width="1282" height="805"/></clipPath></defs><g clip-path="url(#clip0)" transform="translate(-1626 -1573)"><path d="M2458.21 1573.39C2534.47 1576 2602.96 1591.78 2669.86 1626.32 2761.1 1673.41 2815.46 1737.87 2844.75 1779.4 2875.39 1820.04 2917.61 1892.19 2906.05 1982.6 2883.96 2155.27 2636.53 2313.95 2428.38 2361.14 2052.13 2446.46 1705.66 2191.84 1638.89 1959.52 1629.27 1926.05 1611.54 1860.06 1647.88 1795.99 1675.82 1746.72 1735.95 1698.31 1983.63 1644.52 2182.46 1601.34 2331.12 1569.05 2458.21 1573.39Z" fill="#B8C0B0" fill-rule="evenodd"/><text fill="#543E34" font-family="Gill Sans Nova,Gill Sans Nova_MSFontService,sans-serif" font-weight="500" font-size="92" transform="matrix(1 0 0 1 1890.67 2006)">COLLABORATION</text></g></svg>