<svg width="1281" height="805" xmlns="http://www.w3.org/2000/svg" xmlns:xlink="http://www.w3.org/1999/xlink" xml:space="preserve" overflow="hidden"><defs><clipPath id="clip0"><rect x="3025" y="1582" width="1281" height="805"/></clipPath></defs><g clip-path="url(#clip0)" transform="translate(-3025 -1582)"><path d="M3856.56 1582.39C3932.76 1585 4001.2 1600.78 4068.05 1635.32 4159.21 1682.41 4213.53 1746.87 4242.8 1788.4 4273.42 1829.04 4315.6 1901.19 4304.05 1991.6 4281.98 2164.27 4034.74 2322.95 3826.76 2370.14 3450.8 2455.46 3104.6 2200.84 3037.88 1968.52 3028.27 1935.05 3010.55 1869.06 3046.87 1804.99 3074.78 1755.71 3134.86 1707.31 3382.35 1653.52 3581.02 1610.34 3729.57 1578.05 3856.56 1582.39Z" fill="#B8C0B0" fill-rule="evenodd"/><text fill="#543E34" font-family="Gill Sans Nova,Gill Sans Nova_MSFontService,sans-serif" font-weight="500" font-size="92" transform="matrix(1 0 0 1 3360.31 2014)">COMMITMENT </text></g></svg>