<svg width="1282" height="805" xmlns="http://www.w3.org/2000/svg" xmlns:xlink="http://www.w3.org/1999/xlink" xml:space="preserve" overflow="hidden"><defs><clipPath id="clip0"><rect x="1609" y="581" width="1282" height="805"/></clipPath></defs><g clip-path="url(#clip0)" transform="translate(-1609 -581)"><path d="M2441.21 581.391C2517.47 583.995 2585.96 599.785 2652.86 634.317 2744.1 681.415 2798.46 745.871 2827.75 787.399 2858.39 828.036 2900.61 900.188 2889.04 990.599 2866.96 1163.27 2619.53 1321.95 2411.38 1369.14 2035.13 1454.46 1688.66 1199.84 1621.89 967.516 1612.27 934.048 1594.54 868.063 1630.88 803.991 1658.82 754.715 1718.95 706.311 1966.63 652.519 2165.46 609.338 2314.12 577.052 2441.21 581.391Z" fill="#B8C0B0" fill-rule="evenodd"/><text fill="#543E34" font-family="Gill Sans Nova,Gill Sans Nova_MSFontService,sans-serif" font-weight="500" font-size="92" transform="matrix(1 0 0 1 2033.22 1013)">COURAGE</text></g></svg>