<svg width="1281" height="805" xmlns="http://www.w3.org/2000/svg" xmlns:xlink="http://www.w3.org/1999/xlink" xml:space="preserve" overflow="hidden"><defs><clipPath id="clip0"><rect x="3065" y="633" width="1281" height="805"/></clipPath></defs><g clip-path="url(#clip0)" transform="translate(-3065 -633)"><path d="M3896.56 633.391C3972.76 635.995 4041.2 651.784 4108.05 686.317 4199.21 733.415 4253.53 797.871 4282.8 839.399 4313.42 880.036 4355.6 952.188 4344.05 1042.6 4321.98 1215.27 4074.74 1373.95 3866.76 1421.14 3490.8 1506.46 3144.6 1251.84 3077.88 1019.52 3068.27 986.048 3050.55 920.063 3086.87 855.991 3114.78 806.715 3174.86 758.311 3422.35 704.519 3621.02 661.338 3769.57 629.052 3896.56 633.391Z" fill="#B8C0B0" fill-rule="evenodd"/><text fill="#543E34" font-family="Gill Sans Nova,Gill Sans Nova_MSFontService,sans-serif" font-weight="500" font-size="92" transform="matrix(1 0 0 1 3162.92 1066)">CULTURAL INTELLIGENCE</text></g></svg>