<svg width="1282" height="806" xmlns="http://www.w3.org/2000/svg" xmlns:xlink="http://www.w3.org/1999/xlink" xml:space="preserve" overflow="hidden"><defs><clipPath id="clip0"><rect x="267" y="594" width="1282" height="806"/></clipPath></defs><g clip-path="url(#clip0)" transform="translate(-267 -594)"><path d="M1099.21 594.392C1175.47 596.999 1243.96 612.808 1310.86 647.384 1402.1 694.54 1456.46 759.076 1485.75 800.656 1516.39 841.343 1558.61 913.584 1547.05 1004.11 1524.96 1177 1277.53 1335.87 1069.38 1383.12 693.133 1468.55 346.659 1213.61 279.891 980.996 270.273 947.487 252.536 881.42 288.884 817.268 316.819 767.931 376.946 719.467 624.632 665.608 823.457 622.373 972.118 590.047 1099.21 594.392Z" fill="#B8C0B0" fill-rule="evenodd"/><text fill="#543E34" font-family="Gill Sans Nova,Gill Sans Nova_MSFontService,sans-serif" font-weight="500" font-size="92" transform="matrix(1 0 0 1 677.129 972)">CURIOSITY</text></g></svg>